<svg xmlns="http://www.w3.org/2000/svg" width="1000" height="1400" viewBox="0 0 1000 1400">
  <defs>
    <linearGradient id="bg" x1="0" y1="0" x2="1" y2="1">
      <stop offset="0%" stop-color="#0F1C16"/>
      <stop offset="55%" stop-color="#1D4E3F"/>
      <stop offset="100%" stop-color="#0B0F0D"/>
    </linearGradient>
  </defs>
  <rect width="1000" height="1400" fill="url(#bg)"/>
  <rect x="28" y="28" width="944" height="1344" rx="58" fill="none" stroke="#34FF5A" stroke-opacity="0.22" stroke-width="8"/>
  <rect x="60" y="120" width="880" height="14" rx="7" fill="#E63946"/>
  <rect x="60" y="1040" width="880" height="260" rx="40" fill="#0B120F" stroke="#34FF5A" stroke-opacity="0.5" stroke-width="4"/>
  <g opacity="0.25" stroke="#FFFFFF" stroke-width="4" fill="none">
    <rect x="300" y="360" width="400" height="400" rx="30" transform="rotate(45 500 560)"/>
    <rect x="355" y="415" width="290" height="290" rx="22" transform="rotate(45 500 560)"/>
  </g>
  <g stroke="#E63946" stroke-width="4" stroke-linecap="round" stroke-dasharray="8 12" opacity="0.6">
    <path d="M140 240 C240 140, 420 140, 520 240"/>
    <path d="M480 240 C580 340, 760 340, 860 240"/>
  </g>
  <g opacity="0.15">
    <rect x="90" y="210" width="820" height="6" fill="#FFFFFF"/>
    <rect x="90" y="980" width="820" height="6" fill="#FFFFFF"/>
  </g>
</svg>
